<svg width="200" height="50" viewBox="0 0 200 50" fill="none" xmlns="http://www.w3.org/2000/svg">
<g clip-path="url(#clip0_5_2)">
<path d="M16.5125 27.7562L20.2758 19.7224H18.5409L15.5249 26.1014L12.7224 19.7224H9.70641L13.4964 27.7829V32H16.5125V27.7562ZM26.6387 30.879L27.3861 32H29.3612V25.4875C29.3612 23.2633 28 22.1512 25.2775 22.1512C23.9074 22.1512 22.9288 22.427 22.3416 22.9786C21.7544 23.5125 21.4074 24.3488 21.3007 25.4875L23.7562 25.7811C23.8274 24.3399 24.3078 23.6192 25.1975 23.6192C25.9982 23.6192 26.3985 24.1797 26.3985 25.3007V26.2616L24.7437 26.5819C23.338 26.831 22.3416 27.1779 21.7544 27.6228C21.1672 28.0498 20.8736 28.6815 20.8736 29.5178C20.8736 30.3541 21.1227 31.0214 21.621 31.5196C22.137 32 22.8131 32.2402 23.6494 32.2402C24.895 32.2402 25.8914 31.7865 26.6387 30.879ZM23.516 29.4377C23.516 28.5302 24.0765 27.952 25.1975 27.7028L26.3985 27.4626V29.8381C25.8647 30.4075 25.3576 30.6922 24.8772 30.6922C23.9697 30.6922 23.516 30.274 23.516 29.4377ZM34.9729 22.8719V19.0552L31.9836 19.4288V32H34.9729V24.3399C35.4711 24.0018 35.9605 23.8327 36.4409 23.8327C36.9391 23.8327 37.2683 23.9751 37.4284 24.2598C37.5886 24.5267 37.6687 24.9804 37.6687 25.621V32H40.6313V25.2473C40.6313 24.3399 40.3733 23.6014 39.8573 23.032C39.359 22.4448 38.6384 22.1512 37.6953 22.1512C36.7701 22.1512 35.8626 22.3915 34.9729 22.8719ZM51.6678 22.3915H48.7051V29.9982C48.2603 30.4609 47.7977 30.6922 47.3172 30.6922C46.8368 30.6922 46.5076 30.532 46.3297 30.2117C46.1518 29.8915 46.0628 29.4199 46.0628 28.7972V22.3915H43.0735V29.1975C43.0735 31.226 44.1233 32.2402 46.2229 32.2402C47.3617 32.2402 48.287 31.8399 48.9987 31.0391L49.7727 32H51.6678V22.3915ZM62.5441 27.5961V27.2758C62.5441 23.8594 61.1206 22.1512 58.2736 22.1512C55.3555 22.1512 53.8964 23.8327 53.8964 27.1957C53.8964 28.8861 54.2345 30.1495 54.9106 30.9858C55.6046 31.8221 56.6989 32.2402 58.1936 32.2402C59.706 32.2402 60.7647 31.9733 61.3697 31.4395C61.9747 30.9057 62.3217 30.1762 62.4106 29.2509L59.9551 29.1975C59.9551 30.2473 59.4747 30.7722 58.5139 30.7722C57.9445 30.7722 57.5263 30.5498 57.2594 30.105C56.9925 29.6423 56.859 28.806 56.859 27.5961H62.5441ZM59.6615 26.1281H56.9124C56.9836 25.1495 57.1171 24.4911 57.3128 24.153C57.5263 23.7972 57.8555 23.6192 58.3003 23.6192C58.763 23.6192 59.0921 23.8238 59.2879 24.2331C59.5014 24.6246 59.626 25.2562 59.6615 26.1281ZM66.1762 21.5107C66.6744 21.5107 67.0926 21.3505 67.4306 21.0302C67.7687 20.6922 67.9378 20.274 67.9378 19.7758C67.9378 19.2598 67.7687 18.8327 67.4306 18.4947C67.0926 18.1388 66.6744 17.9609 66.1762 17.9609C65.678 17.9609 65.2598 18.1388 64.9217 18.4947C64.5837 18.8327 64.4146 19.2509 64.4146 19.7491C64.4146 20.2295 64.5837 20.6477 64.9217 21.0036C65.2776 21.3416 65.6958 21.5107 66.1762 21.5107ZM67.6708 32V22.3915H64.6815V32H67.6708ZM84.5095 32H87.5255L87.1785 19.7224H83.1216L80.9063 28.4769L78.771 19.7224H74.9543L74.6073 32H76.449L76.6091 21.7776L79.1714 32H81.787L84.3226 22.1512L84.5095 32ZM98.5349 27.1957C98.5349 23.8327 97.0136 22.1512 93.9709 22.1512C90.946 22.1512 89.4335 23.8327 89.4335 27.1957C89.4335 30.5587 90.946 32.2402 93.9709 32.2402C97.0136 32.2402 98.5349 30.5587 98.5349 27.1957ZM92.3962 27.1957C92.3962 25.9502 92.5029 25.0427 92.7164 24.4733C92.93 23.9039 93.3481 23.6192 93.9709 23.6192C94.6115 23.6192 95.0296 23.9039 95.2253 24.4733C95.4389 25.0249 95.5456 25.9324 95.5456 27.1957C95.5456 28.4591 95.4389 29.3754 95.2253 29.9448C95.0296 30.4964 94.6115 30.7722 93.9709 30.7722C93.3481 30.7722 92.93 30.4875 92.7164 29.9181C92.5029 29.3488 92.3962 28.4413 92.3962 27.1957ZM103.063 23.2456L102.075 22.3915H100.714V32H103.703V24.3399C104.202 24.0018 104.691 23.8327 105.171 23.8327C105.67 23.8327 105.999 23.9751 106.159 24.2598C106.319 24.5445 106.399 24.9982 106.399 25.621V32H109.362V25.2473C109.362 24.3399 109.104 23.6014 108.588 23.032C108.09 22.4448 107.315 22.1512 106.266 22.1512C105.216 22.1512 104.148 22.516 103.063 23.2456ZM113.432 21.5107C113.93 21.5107 114.348 21.3505 114.686 21.0302C115.025 20.6922 115.194 20.274 115.194 19.7758C115.194 19.2598 115.025 18.8327 114.686 18.4947C114.348 18.1388 113.93 17.9609 113.432 17.9609C112.934 17.9609 112.516 18.1388 112.178 18.4947C111.84 18.8327 111.67 19.2509 111.67 19.7491C111.67 20.2295 111.84 20.6477 112.178 21.0036C112.533 21.3416 112.952 21.5107 113.432 21.5107ZM114.927 32V22.3915H111.937V32H114.927ZM121.579 23.6192C122.469 23.6192 122.922 24.411 122.94 25.9947L125.396 25.7278C125.325 24.5178 124.986 23.6192 124.381 23.032C123.794 22.4448 122.807 22.1512 121.419 22.1512C119.675 22.1512 118.501 22.6584 117.896 23.6726C117.397 24.5267 117.148 25.7011 117.148 27.1957C117.148 29.669 117.842 31.2171 119.23 31.8399C119.817 32.1068 120.547 32.2402 121.419 32.2402C122.825 32.2402 123.821 31.9288 124.408 31.306C125.013 30.6833 125.351 29.7402 125.422 28.4769L122.94 28.3701C122.922 29.9715 122.469 30.7722 121.579 30.7722C121.045 30.7722 120.663 30.5142 120.431 29.9982C120.218 29.4822 120.111 28.548 120.111 27.1957C120.111 25.8256 120.218 24.8915 120.431 24.3932C120.645 23.8772 121.027 23.6192 121.579 23.6192ZM132.84 30.879L133.587 32H135.562V25.4875C135.562 23.2633 134.201 22.1512 131.479 22.1512C130.109 22.1512 129.13 22.427 128.543 22.9786C127.956 23.5125 127.609 24.3488 127.502 25.4875L129.957 25.7811C130.029 24.3399 130.509 23.6192 131.399 23.6192C132.199 23.6192 132.6 24.1797 132.6 25.3007V26.2616L130.945 26.5819C129.539 26.831 128.543 27.1779 127.956 27.6228C127.368 28.0498 127.075 28.6815 127.075 29.5178C127.075 30.3541 127.324 31.0214 127.822 31.5196C128.338 32 129.014 32.2402 129.851 32.2402C131.096 32.2402 132.093 31.7865 132.84 30.879ZM129.717 29.4377C129.717 28.5302 130.278 27.952 131.399 27.7028L132.6 27.4626V29.8381C132.066 30.4075 131.559 30.6922 131.078 30.6922C130.171 30.6922 129.717 30.274 129.717 29.4377ZM148.825 32H152.268L147.997 25.4875L152.054 19.7224H150.266L147.09 24.1797L144.207 19.7224H140.764L145.008 26.1815L141.005 32H142.766L145.889 27.516L148.825 32ZM154.389 21.5107C154.887 21.5107 155.305 21.3505 155.644 21.0302C155.982 20.6922 156.151 20.274 156.151 19.7758C156.151 19.2598 155.982 18.8327 155.644 18.4947C155.305 18.1388 154.887 17.9609 154.389 17.9609C153.891 17.9609 153.473 18.1388 153.135 18.4947C152.797 18.8327 152.628 19.2509 152.628 19.7491C152.628 20.2295 152.797 20.6477 153.135 21.0036C153.49 21.3416 153.909 21.5107 154.389 21.5107ZM155.884 32V22.3915H152.894V32H155.884ZM167.207 27.1957C167.207 23.8327 165.685 22.1512 162.643 22.1512C159.618 22.1512 158.105 23.8327 158.105 27.1957C158.105 30.5587 159.618 32.2402 162.643 32.2402C165.685 32.2402 167.207 30.5587 167.207 27.1957ZM161.068 27.1957C161.068 25.9502 161.175 25.0427 161.388 24.4733C161.602 23.9039 162.02 23.6192 162.643 23.6192C163.283 23.6192 163.701 23.9039 163.897 24.4733C164.111 25.0249 164.217 25.9324 164.217 27.1957C164.217 28.4591 164.111 29.3754 163.897 29.9448C163.701 30.4964 163.283 30.7722 162.643 30.7722C162.02 30.7722 161.602 30.4875 161.388 29.9181C161.175 29.3488 161.068 28.4413 161.068 27.1957ZM171.735 23.2456L170.747 22.3915H169.386V32H172.375V24.3399C172.873 24.0018 173.363 23.8327 173.843 23.8327C174.341 23.8327 174.671 23.9751 174.831 24.2598C174.991 24.5445 175.071 24.9982 175.071 25.621V32H178.034V25.2473C178.034 24.3399 177.776 23.6014 177.26 23.032C176.761 22.4448 175.987 22.1512 174.938 22.1512C173.888 22.1512 172.82 22.516 171.735 23.2456ZM189.31 23.5391V22.3915H186.321C185.752 22.2313 185.147 22.1512 184.506 22.1512C183.047 22.1512 182.015 22.4982 181.41 23.1922C180.823 23.8683 180.529 24.7135 180.529 25.7278C180.529 26.742 180.814 27.5605 181.383 28.1833L180.849 28.6904C180.316 29.2064 180.049 29.7669 180.049 30.3719C180.049 31.2082 180.449 31.7242 181.25 31.9199C180.876 32.0267 180.547 32.2491 180.262 32.5872C179.995 32.9253 179.862 33.2722 179.862 33.6281C179.862 35.2651 181.339 36.0836 184.293 36.0836C187.531 36.0836 189.15 35.1317 189.15 33.2278C189.15 32.427 188.865 31.7776 188.296 31.2794C187.727 30.7633 186.944 30.5053 185.947 30.5053H182.317C181.944 30.5053 181.757 30.3719 181.757 30.105C181.757 29.9093 181.89 29.7046 182.157 29.4911L182.691 28.984C183.189 29.1441 183.794 29.2242 184.506 29.2242C186.019 29.2242 187.077 28.8861 187.682 28.21C188.287 27.516 188.59 26.7064 188.59 25.7811C188.59 24.8381 188.394 24.0907 188.002 23.5391H189.31ZM183.358 25.6744C183.358 24.927 183.438 24.3932 183.599 24.073C183.759 23.7527 184.07 23.5925 184.533 23.5925C184.995 23.5925 185.316 23.7527 185.494 24.073C185.672 24.3932 185.761 24.9359 185.761 25.7011C185.761 26.4484 185.672 26.9822 185.494 27.3025C185.316 27.6228 184.995 27.7829 184.533 27.7829C184.07 27.7829 183.759 27.6228 183.599 27.3025C183.438 26.9644 183.358 26.4217 183.358 25.6744ZM185.013 32C185.511 32 185.894 32.1157 186.161 32.347C186.446 32.5961 186.588 32.9253 186.588 33.3345C186.588 34.1708 185.823 34.589 184.293 34.589C183.047 34.589 182.424 34.2242 182.424 33.4947C182.424 32.9431 182.664 32.4448 183.145 32H185.013Z" fill="black"/>
</g>
<defs>
<clipPath id="clip0_5_2">
<rect width="200" height="50" fill="white"/>
</clipPath>
</defs>
</svg>
