<svg width="259" height="27" viewBox="0 0 259 27" fill="none" xmlns="http://www.w3.org/2000/svg">
<path d="M14.125 2.575L8.45 13.425V20H6.175V13.425L0.475 2.575H3L7.3 11.4L11.6 2.575H14.125ZM15.6746 13.1C15.6746 11.7 15.9579 10.475 16.5246 9.425C17.0913 8.35833 17.8663 7.53333 18.8496 6.95C19.8496 6.36667 20.9579 6.075 22.1746 6.075C23.3746 6.075 24.4163 6.33333 25.2996 6.85C26.1829 7.36667 26.8413 8.01667 27.2746 8.8V6.3H29.5746V20H27.2746V17.45C26.8246 18.25 26.1496 18.9167 25.2496 19.45C24.3663 19.9667 23.3329 20.225 22.1496 20.225C20.9329 20.225 19.8329 19.925 18.8496 19.325C17.8663 18.725 17.0913 17.8833 16.5246 16.8C15.9579 15.7167 15.6746 14.4833 15.6746 13.1ZM27.2746 13.125C27.2746 12.0917 27.0663 11.1917 26.6496 10.425C26.2329 9.65833 25.6663 9.075 24.9496 8.675C24.2496 8.25833 23.4746 8.05 22.6246 8.05C21.7746 8.05 20.9996 8.25 20.2996 8.65C19.5996 9.05 19.0413 9.63333 18.6246 10.4C18.2079 11.1667 17.9996 12.0667 17.9996 13.1C17.9996 14.15 18.2079 15.0667 18.6246 15.85C19.0413 16.6167 19.5996 17.2083 20.2996 17.625C20.9996 18.025 21.7746 18.225 22.6246 18.225C23.4746 18.225 24.2496 18.025 24.9496 17.625C25.6663 17.2083 26.2329 16.6167 26.6496 15.85C27.0663 15.0667 27.2746 14.1583 27.2746 13.125ZM40.2191 6.05C41.2525 6.05 42.1858 6.275 43.0191 6.725C43.8525 7.15833 44.5025 7.81667 44.9691 8.7C45.4525 9.58333 45.6941 10.6583 45.6941 11.925V20H43.4441V12.25C43.4441 10.8833 43.1025 9.84167 42.4191 9.125C41.7358 8.39167 40.8025 8.025 39.6191 8.025C38.4191 8.025 37.4608 8.4 36.7441 9.15C36.0441 9.9 35.6941 10.9917 35.6941 12.425V20H33.4191V1.5H35.6941V8.25C36.1441 7.55 36.7608 7.00833 37.5441 6.625C38.3441 6.24167 39.2358 6.05 40.2191 6.05ZM61.5604 6.3V20H59.2854V17.975C58.852 18.675 58.2437 19.225 57.4604 19.625C56.6937 20.0083 55.8437 20.2 54.9104 20.2C53.8437 20.2 52.8854 19.9833 52.0354 19.55C51.1854 19.1 50.5104 18.4333 50.0104 17.55C49.527 16.6667 49.2854 15.5917 49.2854 14.325V6.3H51.5354V14.025C51.5354 15.375 51.877 16.4167 52.5604 17.15C53.2437 17.8667 54.177 18.225 55.3604 18.225C56.577 18.225 57.5354 17.85 58.2354 17.1C58.9354 16.35 59.2854 15.2583 59.2854 13.825V6.3H61.5604ZM77.9016 12.625C77.9016 13.0583 77.8766 13.5167 77.8266 14H66.8766C66.9599 15.35 67.4182 16.4083 68.2516 17.175C69.1016 17.925 70.1266 18.3 71.3266 18.3C72.3099 18.3 73.1266 18.075 73.7766 17.625C74.4432 17.1583 74.9099 16.5417 75.1766 15.775H77.6266C77.2599 17.0917 76.5266 18.1667 75.4266 19C74.3266 19.8167 72.9599 20.225 71.3266 20.225C70.0266 20.225 68.8599 19.9333 67.8266 19.35C66.8099 18.7667 66.0099 17.9417 65.4266 16.875C64.8432 15.7917 64.5516 14.5417 64.5516 13.125C64.5516 11.7083 64.8349 10.4667 65.4016 9.4C65.9682 8.33333 66.7599 7.51667 67.7766 6.95C68.8099 6.36667 69.9932 6.075 71.3266 6.075C72.6266 6.075 73.7766 6.35833 74.7766 6.925C75.7766 7.49167 76.5432 8.275 77.0766 9.275C77.6266 10.2583 77.9016 11.375 77.9016 12.625ZM75.5516 12.15C75.5516 11.2833 75.3599 10.5417 74.9766 9.925C74.5932 9.29167 74.0682 8.81667 73.4016 8.5C72.7516 8.16667 72.0266 8 71.2266 8C70.0766 8 69.0932 8.36667 68.2766 9.1C67.4766 9.83333 67.0182 10.85 66.9016 12.15H75.5516ZM82.0795 4.075C81.6462 4.075 81.2795 3.925 80.9795 3.625C80.6795 3.325 80.5295 2.95833 80.5295 2.525C80.5295 2.09167 80.6795 1.725 80.9795 1.425C81.2795 1.125 81.6462 0.974999 82.0795 0.974999C82.4962 0.974999 82.8462 1.125 83.1295 1.425C83.4295 1.725 83.5795 2.09167 83.5795 2.525C83.5795 2.95833 83.4295 3.325 83.1295 3.625C82.8462 3.925 82.4962 4.075 82.0795 4.075ZM83.1795 6.3V20H80.9045V6.3H83.1795ZM111.397 2.7V20H109.122V7.1L103.372 20H101.772L95.9969 7.075V20H93.7219V2.7H96.1719L102.572 17L108.972 2.7H111.397ZM121.23 20.225C119.947 20.225 118.78 19.9333 117.73 19.35C116.697 18.7667 115.88 17.9417 115.28 16.875C114.697 15.7917 114.405 14.5417 114.405 13.125C114.405 11.725 114.705 10.4917 115.305 9.425C115.922 8.34167 116.755 7.51667 117.805 6.95C118.855 6.36667 120.03 6.075 121.33 6.075C122.63 6.075 123.805 6.36667 124.855 6.95C125.905 7.51667 126.73 8.33333 127.33 9.4C127.947 10.4667 128.255 11.7083 128.255 13.125C128.255 14.5417 127.938 15.7917 127.305 16.875C126.688 17.9417 125.847 18.7667 124.78 19.35C123.713 19.9333 122.53 20.225 121.23 20.225ZM121.23 18.225C122.047 18.225 122.813 18.0333 123.53 17.65C124.247 17.2667 124.822 16.6917 125.255 15.925C125.705 15.1583 125.93 14.225 125.93 13.125C125.93 12.025 125.713 11.0917 125.28 10.325C124.847 9.55833 124.28 8.99167 123.58 8.625C122.88 8.24167 122.122 8.05 121.305 8.05C120.472 8.05 119.705 8.24167 119.005 8.625C118.322 8.99167 117.772 9.55833 117.355 10.325C116.938 11.0917 116.73 12.025 116.73 13.125C116.73 14.2417 116.93 15.1833 117.33 15.95C117.747 16.7167 118.297 17.2917 118.98 17.675C119.663 18.0417 120.413 18.225 121.23 18.225ZM137.921 6.05C139.588 6.05 140.938 6.55833 141.971 7.575C143.005 8.575 143.521 10.025 143.521 11.925V20H141.271V12.25C141.271 10.8833 140.93 9.84167 140.246 9.125C139.563 8.39167 138.63 8.025 137.446 8.025C136.246 8.025 135.288 8.4 134.571 9.15C133.871 9.9 133.521 10.9917 133.521 12.425V20H131.246V6.3H133.521V8.25C133.971 7.55 134.58 7.00833 135.346 6.625C136.13 6.24167 136.988 6.05 137.921 6.05ZM148.413 4.075C147.979 4.075 147.613 3.925 147.313 3.625C147.013 3.325 146.863 2.95833 146.863 2.525C146.863 2.09167 147.013 1.725 147.313 1.425C147.613 1.125 147.979 0.974999 148.413 0.974999C148.829 0.974999 149.179 1.125 149.463 1.425C149.763 1.725 149.913 2.09167 149.913 2.525C149.913 2.95833 149.763 3.325 149.463 3.625C149.179 3.925 148.829 4.075 148.413 4.075ZM149.513 6.3V20H147.238V6.3H149.513ZM152.54 13.125C152.54 11.7083 152.823 10.475 153.39 9.425C153.957 8.35833 154.74 7.53333 155.74 6.95C156.757 6.36667 157.915 6.075 159.215 6.075C160.898 6.075 162.282 6.48333 163.365 7.3C164.465 8.11667 165.19 9.25 165.54 10.7H163.09C162.857 9.86667 162.398 9.20833 161.715 8.725C161.048 8.24167 160.215 8 159.215 8C157.915 8 156.865 8.45 156.065 9.35C155.265 10.2333 154.865 11.4917 154.865 13.125C154.865 14.775 155.265 16.05 156.065 16.95C156.865 17.85 157.915 18.3 159.215 18.3C160.215 18.3 161.048 18.0667 161.715 17.6C162.382 17.1333 162.84 16.4667 163.09 15.6H165.54C165.173 17 164.44 18.125 163.34 18.975C162.24 19.8083 160.865 20.225 159.215 20.225C157.915 20.225 156.757 19.9333 155.74 19.35C154.74 18.7667 153.957 17.9417 153.39 16.875C152.823 15.8083 152.54 14.5583 152.54 13.125ZM167.725 13.1C167.725 11.7 168.009 10.475 168.575 9.425C169.142 8.35833 169.917 7.53333 170.9 6.95C171.9 6.36667 173.009 6.075 174.225 6.075C175.425 6.075 176.467 6.33333 177.35 6.85C178.234 7.36667 178.892 8.01667 179.325 8.8V6.3H181.625V20H179.325V17.45C178.875 18.25 178.2 18.9167 177.3 19.45C176.417 19.9667 175.384 20.225 174.2 20.225C172.984 20.225 171.884 19.925 170.9 19.325C169.917 18.725 169.142 17.8833 168.575 16.8C168.009 15.7167 167.725 14.4833 167.725 13.1ZM179.325 13.125C179.325 12.0917 179.117 11.1917 178.7 10.425C178.284 9.65833 177.717 9.075 177 8.675C176.3 8.25833 175.525 8.05 174.675 8.05C173.825 8.05 173.05 8.25 172.35 8.65C171.65 9.05 171.092 9.63333 170.675 10.4C170.259 11.1667 170.05 12.0667 170.05 13.1C170.05 14.15 170.259 15.0667 170.675 15.85C171.092 16.6167 171.65 17.2083 172.35 17.625C173.05 18.025 173.825 18.225 174.675 18.225C175.525 18.225 176.3 18.025 177 17.625C177.717 17.2083 178.284 16.6167 178.7 15.85C179.117 15.0667 179.325 14.1583 179.325 13.125ZM199.26 11.3L204.61 20H202.035L197.86 13.2L193.885 20H191.36L196.685 11.3L191.335 2.575H193.885L198.085 9.4L202.085 2.575H204.635L199.26 11.3ZM208.837 4.075C208.404 4.075 208.037 3.925 207.737 3.625C207.437 3.325 207.287 2.95833 207.287 2.525C207.287 2.09167 207.437 1.725 207.737 1.425C208.037 1.125 208.404 0.974999 208.837 0.974999C209.254 0.974999 209.604 1.125 209.887 1.425C210.187 1.725 210.337 2.09167 210.337 2.525C210.337 2.95833 210.187 3.325 209.887 3.625C209.604 3.925 209.254 4.075 208.837 4.075ZM209.937 6.3V20H207.662V6.3H209.937ZM219.79 20.225C218.506 20.225 217.34 19.9333 216.29 19.35C215.256 18.7667 214.44 17.9417 213.84 16.875C213.256 15.7917 212.965 14.5417 212.965 13.125C212.965 11.725 213.265 10.4917 213.865 9.425C214.481 8.34167 215.315 7.51667 216.365 6.95C217.415 6.36667 218.59 6.075 219.89 6.075C221.19 6.075 222.365 6.36667 223.415 6.95C224.465 7.51667 225.29 8.33333 225.89 9.4C226.506 10.4667 226.815 11.7083 226.815 13.125C226.815 14.5417 226.498 15.7917 225.865 16.875C225.248 17.9417 224.406 18.7667 223.34 19.35C222.273 19.9333 221.09 20.225 219.79 20.225ZM219.79 18.225C220.606 18.225 221.373 18.0333 222.09 17.65C222.806 17.2667 223.381 16.6917 223.815 15.925C224.265 15.1583 224.49 14.225 224.49 13.125C224.49 12.025 224.273 11.0917 223.84 10.325C223.406 9.55833 222.84 8.99167 222.14 8.625C221.44 8.24167 220.681 8.05 219.865 8.05C219.031 8.05 218.265 8.24167 217.565 8.625C216.881 8.99167 216.331 9.55833 215.915 10.325C215.498 11.0917 215.29 12.025 215.29 13.125C215.29 14.2417 215.49 15.1833 215.89 15.95C216.306 16.7167 216.856 17.2917 217.54 17.675C218.223 18.0417 218.973 18.225 219.79 18.225ZM236.481 6.05C238.148 6.05 239.498 6.55833 240.531 7.575C241.564 8.575 242.081 10.025 242.081 11.925V20H239.831V12.25C239.831 10.8833 239.489 9.84167 238.806 9.125C238.123 8.39167 237.189 8.025 236.006 8.025C234.806 8.025 233.848 8.4 233.131 9.15C232.431 9.9 232.081 10.9917 232.081 12.425V20H229.806V6.3H232.081V8.25C232.531 7.55 233.139 7.00833 233.906 6.625C234.689 6.24167 235.548 6.05 236.481 6.05ZM251.447 6.075C252.63 6.075 253.664 6.33333 254.547 6.85C255.447 7.36667 256.114 8.01667 256.547 8.8V6.3H258.847V20.3C258.847 21.55 258.58 22.6583 258.047 23.625C257.514 24.6083 256.747 25.375 255.747 25.925C254.764 26.475 253.614 26.75 252.297 26.75C250.497 26.75 248.997 26.325 247.797 25.475C246.597 24.625 245.889 23.4667 245.672 22H247.922C248.172 22.8333 248.689 23.5 249.472 24C250.255 24.5167 251.197 24.775 252.297 24.775C253.547 24.775 254.564 24.3833 255.347 23.6C256.147 22.8167 256.547 21.7167 256.547 20.3V17.425C256.097 18.225 255.43 18.8917 254.547 19.425C253.664 19.9583 252.63 20.225 251.447 20.225C250.23 20.225 249.122 19.925 248.122 19.325C247.139 18.725 246.364 17.8833 245.797 16.8C245.23 15.7167 244.947 14.4833 244.947 13.1C244.947 11.7 245.23 10.475 245.797 9.425C246.364 8.35833 247.139 7.53333 248.122 6.95C249.122 6.36667 250.23 6.075 251.447 6.075ZM256.547 13.125C256.547 12.0917 256.339 11.1917 255.922 10.425C255.505 9.65833 254.939 9.075 254.222 8.675C253.522 8.25833 252.747 8.05 251.897 8.05C251.047 8.05 250.272 8.25 249.572 8.65C248.872 9.05 248.314 9.63333 247.897 10.4C247.48 11.1667 247.272 12.0667 247.272 13.1C247.272 14.15 247.48 15.0667 247.897 15.85C248.314 16.6167 248.872 17.2083 249.572 17.625C250.272 18.025 251.047 18.225 251.897 18.225C252.747 18.225 253.522 18.025 254.222 17.625C254.939 17.2083 255.505 16.6167 255.922 15.85C256.339 15.0667 256.547 14.1583 256.547 13.125Z" fill="black"/>
</svg>
